<mxfile host="drawio-plugin" modified="2021-05-17T20:58:54.675Z" agent="5.0 (Windows NT 6.2; Win64; x64) AppleWebKit/537.36 (KHTML, like Gecko) Chrome/84.0.4147.105 Safari/537.36" etag="5L1IjPgHIC6szZch1c03" version="14.6.6" type="embed"><diagram name="Page-1" id="efa7a0a1-bf9b-a30e-e6df-94a7791c09e9"><mxGraphModel dx="733" dy="578" grid="1" gridSize="10" guides="1" tooltips="1" connect="1" arrows="1" fold="1" page="1" pageScale="1" pageWidth="826" pageHeight="1169" background="#ffffff" math="0" shadow="0"><root><mxCell id="0"/><mxCell id="1" parent="0"/><mxCell id="h1_zLLvUtK2ghCLyMsIQ-125" style="edgeStyle=orthogonalEdgeStyle;rounded=0;orthogonalLoop=1;jettySize=auto;html=1;entryX=0.75;entryY=0;entryDx=0;entryDy=0;strokeColor=#000000;" parent="1" source="19" target="20" edge="1"><mxGeometry relative="1" as="geometry"/></mxCell><mxCell id="19" value="&lt;p style=&quot;margin: 0px ; margin-top: 4px ; text-align: center ; text-decoration: underline&quot;&gt;&lt;b&gt;&lt;br&gt;&lt;/b&gt;&lt;/p&gt;&lt;p style=&quot;margin: 0px ; margin-top: 4px ; text-align: center ; text-decoration: underline&quot;&gt;&lt;b&gt;&lt;br&gt;&lt;/b&gt;&lt;/p&gt;&lt;p style=&quot;margin: 0px ; margin-top: 4px ; text-align: center ; text-decoration: underline&quot;&gt;&lt;b&gt;zoo-confirmation&lt;/b&gt;&lt;/p&gt;" style="verticalAlign=top;align=left;overflow=fill;fontSize=12;fontFamily=Helvetica;html=1;strokeColor=#003366;shadow=1;fillColor=#D4E1F5;fontColor=#003366" parent="1" vertex="1"><mxGeometry x="620" y="420" width="170" height="120" as="geometry"/></mxCell><mxCell id="20" value="&lt;p style=&quot;margin: 0px ; margin-top: 4px ; text-align: center ; text-decoration: underline&quot;&gt;&lt;b&gt;&lt;br&gt;&lt;/b&gt;&lt;/p&gt;&lt;p style=&quot;margin: 0px ; margin-top: 4px ; text-align: center ; text-decoration: underline&quot;&gt;&lt;b&gt;&lt;br&gt;&lt;/b&gt;&lt;/p&gt;&lt;p style=&quot;margin: 0px ; margin-top: 4px ; text-align: center ; text-decoration: underline&quot;&gt;&lt;b&gt;zoo-notification&lt;/b&gt;&lt;/p&gt;&lt;hr&gt;&lt;p style=&quot;margin: 0px ; margin-left: 8px&quot;&gt;&lt;br&gt;&lt;/p&gt;" style="verticalAlign=top;align=left;overflow=fill;fontSize=12;fontFamily=Helvetica;html=1;strokeColor=#003366;shadow=1;fillColor=#D4E1F5;fontColor=#003366" parent="1" vertex="1"><mxGeometry x="300" y="530" width="160" height="110" as="geometry"/></mxCell><mxCell id="h1_zLLvUtK2ghCLyMsIQ-126" style="edgeStyle=orthogonalEdgeStyle;rounded=0;orthogonalLoop=1;jettySize=auto;html=1;entryX=0.5;entryY=0;entryDx=0;entryDy=0;" parent="1" source="25" target="20" edge="1"><mxGeometry relative="1" as="geometry"><Array as="points"><mxPoint x="380" y="490"/><mxPoint x="380" y="490"/></Array></mxGeometry></mxCell><mxCell id="h1_zLLvUtK2ghCLyMsIQ-131" value="GET_/notify/sms&lt;br&gt;GET_/notify/email" style="edgeLabel;html=1;align=left;verticalAlign=middle;resizable=0;points=[];" parent="h1_zLLvUtK2ghCLyMsIQ-126" vertex="1" connectable="0"><mxGeometry x="-0.2313" y="-1" relative="1" as="geometry"><mxPoint as="offset"/></mxGeometry></mxCell><mxCell id="h1_zLLvUtK2ghCLyMsIQ-127" style="edgeStyle=orthogonalEdgeStyle;rounded=0;orthogonalLoop=1;jettySize=auto;html=1;entryX=0.5;entryY=0;entryDx=0;entryDy=0;strokeColor=#000000;" parent="1" source="25" target="19" edge="1"><mxGeometry relative="1" as="geometry"/></mxCell><mxCell id="h1_zLLvUtK2ghCLyMsIQ-130" value="endpoint&lt;br&gt;endpoint&lt;br&gt;endpoint" style="edgeLabel;html=1;align=center;verticalAlign=middle;resizable=0;points=[];" parent="h1_zLLvUtK2ghCLyMsIQ-127" vertex="1" connectable="0"><mxGeometry x="-0.1201" y="-4" relative="1" as="geometry"><mxPoint as="offset"/></mxGeometry></mxCell><mxCell id="25" value="&lt;p style=&quot;margin: 0px ; margin-top: 4px ; text-align: center ; text-decoration: underline&quot;&gt;&lt;strong&gt;&lt;br&gt;&lt;/strong&gt;&lt;/p&gt;&lt;p style=&quot;margin: 0px ; margin-top: 4px ; text-align: center ; text-decoration: underline&quot;&gt;&lt;strong&gt;&lt;br&gt;&lt;/strong&gt;&lt;/p&gt;&lt;p style=&quot;margin: 0px ; margin-top: 4px ; text-align: center ; text-decoration: underline&quot;&gt;&lt;strong&gt;zoo-orchestrator&lt;/strong&gt;&lt;/p&gt;&lt;hr&gt;&lt;p style=&quot;margin: 0px ; margin-left: 8px&quot;&gt;&lt;br&gt;&lt;/p&gt;" style="verticalAlign=top;align=left;overflow=fill;fontSize=12;fontFamily=Helvetica;html=1;strokeColor=#003366;shadow=1;fillColor=#D4E1F5;fontColor=#003366" parent="1" vertex="1"><mxGeometry x="340" y="280" width="160" height="110" as="geometry"/></mxCell><mxCell id="h1_zLLvUtK2ghCLyMsIQ-116" style="edgeStyle=orthogonalEdgeStyle;rounded=0;orthogonalLoop=1;jettySize=auto;html=1;entryX=0.404;entryY=0.017;entryDx=0;entryDy=0;entryPerimeter=0;strokeColor=#000000;" parent="1" source="h1_zLLvUtK2ghCLyMsIQ-114" target="h1_zLLvUtK2ghCLyMsIQ-115" edge="1"><mxGeometry relative="1" as="geometry"/></mxCell><mxCell id="h1_zLLvUtK2ghCLyMsIQ-114" value="user" style="shape=umlActor;verticalLabelPosition=bottom;verticalAlign=top;html=1;outlineConnect=0;strokeColor=#000000;fillColor=#FFFFFF;" parent="1" vertex="1"><mxGeometry x="80" y="20" width="30" height="60" as="geometry"/></mxCell><mxCell id="h1_zLLvUtK2ghCLyMsIQ-122" style="edgeStyle=orthogonalEdgeStyle;rounded=0;orthogonalLoop=1;jettySize=auto;html=1;strokeColor=#000000;" parent="1" source="h1_zLLvUtK2ghCLyMsIQ-115" edge="1"><mxGeometry relative="1" as="geometry"><mxPoint x="390" y="280" as="targetPoint"/></mxGeometry></mxCell><mxCell id="h1_zLLvUtK2ghCLyMsIQ-123" value="POST_/api/animalRequest" style="edgeLabel;html=1;align=center;verticalAlign=middle;resizable=0;points=[];" parent="h1_zLLvUtK2ghCLyMsIQ-122" vertex="1" connectable="0"><mxGeometry x="-0.1509" y="-1" relative="1" as="geometry"><mxPoint as="offset"/></mxGeometry></mxCell><mxCell id="h1_zLLvUtK2ghCLyMsIQ-115" value="&lt;p style=&quot;margin: 0px ; margin-top: 4px ; text-align: center ; text-decoration: underline&quot;&gt;&lt;b&gt;&lt;br&gt;&lt;/b&gt;&lt;/p&gt;&lt;p style=&quot;margin: 0px ; margin-top: 4px ; text-align: center ; text-decoration: underline&quot;&gt;&lt;b&gt;&lt;br&gt;&lt;/b&gt;&lt;/p&gt;&lt;p style=&quot;margin: 0px ; margin-top: 4px ; text-align: center ; text-decoration: underline&quot;&gt;&lt;b&gt;zoo-telegram-bot&lt;/b&gt;&lt;/p&gt;&lt;hr&gt;&lt;p style=&quot;margin: 0px ; margin-left: 8px&quot;&gt;&lt;br&gt;&lt;/p&gt;" style="verticalAlign=top;align=left;overflow=fill;fontSize=12;fontFamily=Helvetica;html=1;strokeColor=#003366;shadow=1;fillColor=#D4E1F5;fontColor=#003366" parent="1" vertex="1"><mxGeometry x="30.000000000000455" y="130.00000000000057" width="160" height="100" as="geometry"/></mxCell><mxCell id="h1_zLLvUtK2ghCLyMsIQ-118" style="edgeStyle=orthogonalEdgeStyle;rounded=0;orthogonalLoop=1;jettySize=auto;html=1;entryX=0.404;entryY=0.017;entryDx=0;entryDy=0;entryPerimeter=0;strokeColor=#000000;" parent="1" source="h1_zLLvUtK2ghCLyMsIQ-119" target="h1_zLLvUtK2ghCLyMsIQ-120" edge="1"><mxGeometry relative="1" as="geometry"/></mxCell><mxCell id="h1_zLLvUtK2ghCLyMsIQ-119" value="user" style="shape=umlActor;verticalLabelPosition=bottom;verticalAlign=top;html=1;outlineConnect=0;strokeColor=#000000;fillColor=#FFFFFF;" parent="1" vertex="1"><mxGeometry x="670" y="20" width="30" height="60" as="geometry"/></mxCell><mxCell id="h1_zLLvUtK2ghCLyMsIQ-121" style="edgeStyle=orthogonalEdgeStyle;rounded=0;orthogonalLoop=1;jettySize=auto;html=1;entryX=0.664;entryY=-0.021;entryDx=0;entryDy=0;entryPerimeter=0;strokeColor=#000000;" parent="1" source="h1_zLLvUtK2ghCLyMsIQ-120" target="25" edge="1"><mxGeometry relative="1" as="geometry"/></mxCell><mxCell id="h1_zLLvUtK2ghCLyMsIQ-120" value="&lt;p style=&quot;margin: 4px 0px 0px ; text-decoration: underline&quot;&gt;&lt;br&gt;&lt;/p&gt;&lt;p style=&quot;margin: 4px 0px 0px&quot;&gt;&lt;strong&gt;&lt;br&gt;&lt;/strong&gt;&lt;/p&gt;&lt;p style=&quot;margin: 4px 0px 0px&quot;&gt;&lt;b&gt;front&lt;/b&gt;&lt;/p&gt;&lt;hr&gt;&lt;p style=&quot;margin: 0px 0px 0px 8px&quot;&gt;&lt;br style=&quot;text-align: left&quot;&gt;&lt;/p&gt;" style="verticalAlign=top;align=center;overflow=fill;fontSize=12;fontFamily=Helvetica;html=1;strokeColor=#003366;shadow=1;fillColor=#D4E1F5;fontColor=#003366" parent="1" vertex="1"><mxGeometry x="620.0000000000005" y="130.00000000000057" width="160" height="100" as="geometry"/></mxCell><mxCell id="h1_zLLvUtK2ghCLyMsIQ-128" value="&lt;p style=&quot;margin: 0px ; margin-top: 4px ; text-align: center ; text-decoration: underline&quot;&gt;&lt;strong&gt;&lt;br&gt;&lt;/strong&gt;&lt;/p&gt;&lt;p style=&quot;margin: 0px ; margin-top: 4px ; text-align: center ; text-decoration: underline&quot;&gt;&lt;strong&gt;&lt;br&gt;&lt;/strong&gt;&lt;/p&gt;&lt;p style=&quot;margin: 0px ; margin-top: 4px ; text-align: center ; text-decoration: underline&quot;&gt;&lt;strong&gt;zoo-booking&lt;/strong&gt;&lt;/p&gt;&lt;hr&gt;&lt;p style=&quot;margin: 0px ; margin-left: 8px&quot;&gt;&lt;br&gt;&lt;/p&gt;" style="verticalAlign=top;align=left;overflow=fill;fontSize=12;fontFamily=Helvetica;html=1;strokeColor=#003366;shadow=1;fillColor=#D4E1F5;fontColor=#003366" parent="1" vertex="1"><mxGeometry x="30" y="390" width="160" height="110" as="geometry"/></mxCell></root></mxGraphModel></diagram></mxfile>